<svg xmlns="http://www.w3.org/2000/svg" width="17.113" height="18.539" viewBox="0 0 17.113 18.539">
  <g id="power-button-off" transform="translate(-18.275)">
    <g id="Group_46" data-name="Group 46" transform="translate(18.275)">
      <path id="Path_49" data-name="Path 49" d="M202.424,9.983a1.446,1.446,0,0,0,1.426-1.426V1.426a1.37,1.37,0,0,0-.424-1,1.4,1.4,0,0,0-2.006,0,1.37,1.37,0,0,0-.423,1V8.557a1.446,1.446,0,0,0,1.426,1.426Z" transform="translate(-193.868 0)" fill="#810002"/>
      <path id="Path_50" data-name="Path 50" d="M34.492,76.606A8.394,8.394,0,0,0,31.968,73.6a1.384,1.384,0,0,0-1.058-.279,1.321,1.321,0,0,0-.936.557,1.356,1.356,0,0,0-.273,1.053,1.386,1.386,0,0,0,.552.942,5.689,5.689,0,0,1,1.688,2.017,5.682,5.682,0,0,1,.145,4.752,5.65,5.65,0,0,1-3.042,3.041,5.642,5.642,0,0,1-4.423,0,5.648,5.648,0,0,1-3.042-3.041,5.681,5.681,0,0,1,.145-4.752,5.691,5.691,0,0,1,1.688-2.017,1.388,1.388,0,0,0,.552-.942,1.356,1.356,0,0,0-.273-1.053,1.317,1.317,0,0,0-.93-.557A1.409,1.409,0,0,0,21.7,73.6a8.506,8.506,0,0,0-2.741,10.15A8.453,8.453,0,0,0,23.511,88.3a8.445,8.445,0,0,0,6.64,0,8.451,8.451,0,0,0,4.557-4.556,8.325,8.325,0,0,0,.679-3.32A8.428,8.428,0,0,0,34.492,76.606Z" transform="translate(-18.275 -70.445)" fill="#810002"/>
    </g>
  </g>
</svg>
